<svg version="1" xmlns="http://www.w3.org/2000/svg" width="3756" height="3756" viewBox="0 0 2817.000000 2817.000000"><path d="M1363.9 82.4c-.2.2-8.3.7-17.9 1.1-9.6.3-19.3.8-21.5 1-2.2.1-8.5.6-14 .9-5.5.4-11.3.8-13 1.1-2.7.4-7.7.8-22.5 2-2.5.2-6.3.6-8.5.9-2.2.3-7.1.8-11 1.2-3.8.3-7.2.8-7.5.9-.3.2-3.9.6-8 1s-7.7.8-8 1c-.3.2-3.7.6-7.5 1-3.9.4-7.3.9-7.7 1.1-.3.2-2.8.7-5.5.9-2.6.3-5.7.7-6.9 1-1.2.3-5.2.9-9 1.5-3.8.5-8 1.2-9.4 1.4-1.4.3-5.2 1-8.5 1.5-3.3.6-7.1 1.3-8.5 1.6-1.4.3-4.1.8-6 1.1-1.9.3-4.2.7-5 .9-.8.2-3 .7-4.9 1-5.7 1-29.5 6.1-46.1 10-8.5 2-16.2 3.8-17 4-33.8 7.8-94.7 26.4-133 40.5-4.7 1.7-9.6 3.5-11 3.9-11.3 3.6-63 25.2-92.5 38.6-19 8.6-60.9 29.8-82.2 41.6-2.8 1.6-7.1 3.9-9.5 5.2-54.2 29.8-113.6 69.2-167.5 111.4-14.1 11-48.6 39.3-50.3 41.2-.3.3-3.6 3.3-7.5 6.6-3.8 3.3-9 7.9-11.5 10.2-2.5 2.3-5.6 5.1-7 6.3-12.2 10.4-56.2 53.5-73.5 72-10.8 11.5-28.2 30.6-33.4 36.6-1.4 1.6-5.2 6.1-8.5 9.9-3.4 3.9-8.1 9.5-10.6 12.4-2.5 3-5 5.9-5.5 6.5-6 6.2-47.5 60.5-59 77-2.2 3.1-5.4 7.6-7.1 9.9-3.4 4.6-24.3 35.9-31.6 47.2-10.6 16.6-31.8 51.9-31.8 53.1 0 .4-.6 1.5-1.4 2.3-.7.9-3.1 5-5.4 9.1-2.2 4.1-5.1 9.5-6.5 12-10.5 18.6-43.2 84.3-42.7 85.8 0 .1-.6 1.5-1.4 3-3.3 5.9-25.6 58.5-25.6 60.3 0 .5-.5 1.7-1 2.7-1.3 2.2-8.6 21.3-14 36.7-2.3 6.6-4.5 12.9-5 14-.8 1.9-8.5 25.4-14.3 44-7.4 23.2-24.9 90.8-28.2 108.5-.3 1.4-.7 3.4-.9 4.5-2.1 10.1-5.6 27.7-6.1 30.5-.3 1.9-1.2 6.9-2 11s-1.7 9.3-2 11.5c-.3 2.2-.7 4.7-1 5.5-.2.8-.6 3.7-1 6.5-.3 2.7-.8 5.7-1 6.5-.2.8-.7 3.7-1 6.4-.2 2.7-1.1 9-1.9 14-.8 5-1.7 11.8-2.1 15.1-.3 3.3-.8 7.1-1 8.5-.6 4-1.4 11-2 17.5-.3 3.3-.8 7.6-1 9.5-.4 3.3-.9 7.9-1.9 20.5-.3 2.7-.8 9.3-1.1 14.5-.3 5.2-.8 12.2-1 15.5-2.7 36.4-2.7 138.8-.1 164.5.2 1.9.7 8 1 13.5 1.2 17.8 2.9 37.5 4.1 47 .2 1.6.7 5.7 1 9 .7 6.8 4.4 35.7 5 39.5.5 3.2 3.2 20.2 4 25.5.6 4.5.8 5.6 2.9 17.5 1.3 7.3 2.4 13.2 5.1 27 .3 1.4.9 4.8 1.5 7.6s1.3 6.4 1.6 8c.3 1.6.7 3.7 1 4.6.5 1.8 1.2 4.7 2 8.8.3 1.4.7 3.3 1 4.2.3.9.7 2.5.9 3.5.8 3.9 4.5 20 5.6 23.8.5 2.2 1.9 7.4 2.9 11.5s2.3 9.1 2.9 11c.5 1.9 1.7 6.2 2.6 9.5 2.4 8.8 5.2 18.7 8.7 30 6.7 21.8 9.1 29.1 10 30.2.6.7.8 1.3.5 1.3-.7 0 8 25.7 13.8 41 2 5.2 3.8 9.9 3.9 10.5.2.5.7 1.9 1.1 3 2 5 8.8 22.4 10.1 25.6 2.6 7.2 19.2 45.6 23.8 55.1 2.5 5.3 4.6 9.9 4.6 10.3 0 .8 21.4 43.6 28 56 3 5.5 6.2 11.6 7.2 13.5 21.8 41 57.8 98.2 90.7 144.1 11.7 16.3 41.7 55.3 50.7 65.9 20.8 24.5 33.6 39.4 36.9 43 2.3 2.5 6.8 7.4 10.1 11 3.2 3.6 8.8 9.6 12.4 13.5 7.8 8.4 50.1 50.8 58.5 58.6 13.3 12.3 40.3 36.5 46.5 41.5 3.7 3.1 8.6 7.2 10.4 8.9 6.2 5.8 39.4 32 58.5 46.2 6.9 5.2 13.3 9.9 14.1 10.6 8.7 6.9 50.9 35.7 71 48.4 16.9 10.6 37.8 23.3 38.5 23.3.4 0 1.9.8 3.3 1.9 3.1 2.1 26.8 15.4 39.2 21.9 4.7 2.5 11.6 6.2 15.3 8.3 3.8 2.2 7.1 3.9 7.3 3.9.3 0 9.3 4.4 20.2 9.8 10.8 5.3 23.3 11.4 27.7 13.4 4.4 2 11.5 5.2 15.8 7.2 4.4 2 8 3.6 8.2 3.6.2 0 3.6 1.5 7.7 3.4 7.1 3.2 41.1 16.9 59.3 23.9 29.2 11.2 71.5 25 109.5 35.7 14.8 4.2 55.8 14.4 61.9 15.5 1.9.3 3.7.8 4.1 1 .4.2 2 .7 3.6.9 4.6.9 16.2 3.2 23.9 4.9 3.9.8 8.6 1.8 10.5 2.1 1.9.3 7.1 1.2 11.5 2 4.4.9 9.5 1.8 11.3 2.1 1.7.3 4.7.7 6.5 1 7 1.2 9.6 1.6 24.7 4 2.4.3 15 2.1 21.5 3 1.7.2 5.3.7 8 1 2.8.3 6.6.8 8.5 1 1.9.3 6.2.7 9.5 1 3.3.3 7.7.8 9.8 1.1 2.1.4 5.7.8 8 .9 2.3.2 7.1.6 10.7 1 3.6.3 9.4.8 13 1 3.6.2 9.4.7 13 1 43.8 3.6 129.1 4.1 176.5 1 19.4-1.3 24.3-1.6 27.5-2 1.9-.2 6.9-.7 11-1 7.4-.6 13.6-1.2 21.5-2.1 2.2-.2 6.3-.7 9-.9 4.8-.6 32.1-4 39.5-5.1 1.9-.3 7.8-1.2 13-2s10.6-1.7 12-1.9c5.6-.9 31.7-5.4 34-5.9 4.6-1 12.5-2.6 15.5-3.1 1.7-.2 9.3-1.9 17-3.6 7.7-1.7 14.7-3.2 15.5-3.4 34.7-7.5 106-27.9 134-38.3.8-.3 1.7-.6 2-.7 3.2-.8 46.4-16.8 51.5-19 1.7-.7 10-4.1 18.5-7.6 29.6-12 59.6-25.6 91.5-41.6 22.4-11.2 38.7-20 62.5-33.6 22.1-12.6 48.9-29.1 69.5-42.6 14.2-9.3 51-34.8 53.9-37.2.6-.6 2.5-2 4.2-3.2 10.2-7.1 54.6-41.6 56.9-44.1.6-.6 3-2.7 5.5-4.6 2.5-1.9 5.4-4.4 6.6-5.5 1.2-1.1 3.2-2.9 4.5-4 4.1-3.4 23.3-19.9 25-21.5.8-.8 6-5.6 11.4-10.5 21.8-19.8 48.1-45.8 71-70 17.3-18.3 15.6-16.5 24-26 3.9-4.4 8.4-9.5 10.2-11.5 5.5-6.1 8.2-9.3 14.1-16.5 3.1-3.9 5.9-7.2 6.2-7.5 3.4-3 37.1-46.1 50.5-64.3 38-51.8 72.9-107.5 103.4-165 13.6-25.6 36.8-73.9 44.1-91.7 1.2-3 3.1-7.5 4.2-10 2.7-5.9 12.4-29.8 15.3-37.5 1.3-3.3 3.3-8.5 4.5-11.5 1.2-3 2.3-6 2.4-6.5.2-.6.8-2.1 1.3-3.5 3.8-9.1 22.1-64.8 28.2-85.5 12-40.8 26.3-101.5 31.6-133.5.3-1.9 1-5.8 1.5-8.5.5-2.8 1.2-6.8 1.5-9 .3-2.2 1-6.3 1.5-9 .5-2.8 1.2-6.8 1.5-9 .3-2.2 1.2-8.3 2-13.6.8-5.2 1.7-12.2 2-15.5.3-3.2.7-6.6 1-7.4.2-.8.7-4.4 1-8 .3-3.6.8-7.2 1-8 .2-.8.7-5.3 1-10 .4-4.7.9-9.4 1.1-10.4.2-1.1.6-5.5.9-9.9.3-4.4.7-9.4 1-11.1.4-2.8.8-7.9 2-26.1 2.1-31.7 2.7-115.3 1.1-145.2-1.1-21.5-2.3-39.7-3.1-47.8-.2-2.2-.7-7.8-1-12.5-.4-4.7-.8-9.6-1-11-.3-1.4-.7-5-1-8-.6-6.3-1.3-12.5-2.1-19-.3-2.5-.7-5.9-.9-7.5-1.6-13-3.5-26.6-6-42.5-.8-5.2-1.7-11.3-2-13.5-.3-2.2-.8-4.7-1-5.5-.2-.8-.7-3.1-1-5-1.5-9.6-7.1-37.5-10.7-53.5-2.2-9.9-4.1-18.7-4.3-19.5-2.8-13.9-18.1-68.8-26.7-95.5-6-18.8-17-51.1-18.8-55-.5-1.1-1.2-3.1-1.5-4.3-.4-1.3-1.6-4.5-2.8-7-1.1-2.6-2.2-5.2-2.3-5.7-.2-1.1-4.5-12.3-6.9-18-.7-1.7-3.4-8.2-6-14.5-2.6-6.3-5.5-13.3-6.5-15.5-.9-2.2-3.4-7.8-5.5-12.5-5.8-13.3-6.4-14.6-13.7-30-12.8-26.8-25.3-51.2-38.8-75.5-.9-1.7-3.4-6.2-5.5-10-2.2-3.9-4.3-7.2-4.7-7.3-.4-.2-.8-.8-.8-1.4 0-.8-5.2-10.1-9.5-16.9-.5-.9-2.1-3.6-3.5-5.9-3.3-5.6-3.4-5.9-10.8-17.5-3.4-5.5-6.8-10.9-7.5-12-8.5-13.9-36.5-54.7-37.9-55.3-.5-.2-.8-.8-.8-1.3 0-1.4-37.8-52-41-54.9-.3-.3-1.7-2.1-3.1-4-1.5-1.9-3.5-4.5-4.5-5.7-1.1-1.2-2.6-3-3.4-4-12.2-15.1-25.8-31.1-29-34.3-.3-.3-3.4-3.9-7-8-3.5-4.1-9.2-10.4-12.5-14-3.3-3.5-9.1-9.8-13-14-9.3-10-51-51.6-61-60.9-16.6-15.4-19.2-17.8-26.4-24.1-4-3.6-7.9-7-8.5-7.6-.6-.5-7.4-6.3-15.1-12.8-7.7-6.5-15.3-12.9-17-14.3-1.6-1.4-6.8-5.5-11.5-9.2-4.7-3.6-8.7-6.8-9-7.1-.3-.3-3.9-3.2-8-6.3-4.1-3.1-8-6.1-8.6-6.6-.9-.7-28.8-21.3-35.4-26.1-3.8-2.8-27.7-19.3-30.4-21-1.3-.8-6.8-4.4-12.2-8-11.2-7.4-25.4-16.4-33.4-21.1-3-1.8-5.7-3.5-6-3.8-.3-.3-1.5-1.2-2.8-1.9-1.3-.7-12.9-7.4-25.9-14.8-13-7.5-24.5-14-25.7-14.5-1.1-.5-4.1-2.1-6.6-3.5-8.9-5.1-46.8-24.1-63-31.6-32.7-15.1-49.3-22.3-79-33.8-10.2-4-19.4-7.6-20.5-8.1-13.4-5.8-97-32.7-110-35.4-1.1-.2-5.2-1.3-9-2.4-3.9-1.1-8.1-2.2-9.5-2.5-1.4-.2-5.9-1.4-10-2.5s-8.6-2.2-10-2.5c-1.4-.3-9.3-2.1-17.5-4-15.1-3.4-28.8-6.4-33.5-7.2-1.4-.2-4.7-.9-7.5-1.5-2.7-.6-6.3-1.3-8-1.5-1.6-.3-6.4-1.1-10.5-1.9-4.1-.8-9.1-1.7-11-1.9-1.9-.2-4.6-.7-6-1-1.4-.3-4.3-.8-6.5-1.1-2.2-.3-6.7-1-10-1.5s-8-1.2-10.5-1.5c-2.5-.3-5.6-.8-7-1-1.4-.2-4.5-.7-7-1-2.5-.3-6.3-.8-8.5-1.1-2.2-.3-5.6-.7-7.5-.9-1.9-.2-7.3-.8-12-1.4-4.7-.5-11.9-1.3-16-1.6-4.1-.4-8.6-.8-10-1-1.4-.1-6.6-.6-11.5-.9-5-.4-10.8-.9-13-1.1-2.2-.2-8.9-.7-15-1.1-6-.3-13.9-.8-17.5-1.1-8.6-.5-110.6-1.4-111.1-.9zm87.6 176c11 .5 21.6.9 23.5 1.1 1.9.1 8.5.6 14.5.9 6.1.4 12.6.9 14.5 1.1 1.9.2 6.9.6 11 1 4.1.3 10.9 1 15 1.5s10.2 1.2 13.5 1.5c3.3.4 7.1.8 8.5 1 1.4.2 4.8.7 7.5 1 2.8.3 6.1.8 7.5 1 1.4.2 4.5.7 7 1 7.5 1 39.7 6.4 53 9 35.1 6.8 72.3 15.8 105.3 25.6 33.8 10.1 35.6 10.6 46.9 15.7 27.1 12.2 46.8 38.8 51.7 69.7 1.4 8.5.7 26.7-1.3 35-4.3 17.6-11.6 30.4-24.6 43.5-8.7 8.8-11.7 10.9-35.5 25.4-14.3 8.8-32.7 20-41 25.1-8.2 5.1-37.3 22.9-64.5 39.5-27.2 16.7-59.2 36.2-71 43.5-11.8 7.3-30.9 18.9-42.5 26-11.5 7-23.7 14.4-27 16.5-3.3 2.1-24.9 15.4-48 29.5s-43.6 26.7-45.5 28c-28.1 18.1-69.8 39-108 54-35.1 13.8-83.7 28.1-108.7 32.1-2.1.3-4.1.8-4.4 1-.3.2-1.9.5-3.5.8-19.3 3.3-29.5 4.8-43.4 6.5-32.1 3.9-44.9 4.6-80 4.6-32.8 0-45.1-.6-71-3.5-60.7-6.8-112-19.8-178-45-7.4-2.8-15.1-5.7-17-6.4-23.1-8.5-118.1-44.6-122.9-46.7-23.2-10.5-42.5-30.9-52-55.1-15.1-38.4-6.6-81.2 22.2-110.7 5.7-5.9 27.9-24.2 48.2-39.7 133.4-102.1 289.2-174.2 453-209.8 14.3-3.1 21.5-4.5 31-6.1 1.7-.3 6.4-1.2 10.5-2s8.9-1.7 10.5-1.9c1.7-.3 7.1-1.2 12-2 5-.8 11.5-1.8 14.5-2.1 3-.4 6.2-.9 7-1 .8-.1 4-.6 7-1 3-.3 6.6-.8 8-1 2.2-.3 12.1-1.4 26.5-3 2.2-.2 7.2-.7 11-1 3.9-.3 8.4-.8 10-1 1.7-.2 8.2-.7 14.5-1.1 6.3-.3 13.1-.8 15-.9 1.9-.2 12.7-.7 24-1.1 11.3-.3 20.6-.7 20.7-.8.5-.4 47.9.2 64.8.8zm642 306.6c13.1 1.3 18.5 2 29 4.1 56.2 11 105.6 37.1 146.2 77.3 14.6 14.6 37 41.2 46.5 55.6 21 31.6 31 66 30.2 103.5-.4 17.7-.5 18.7-3.5 33-3.8 18.2-11.5 37.9-21.4 54.6-2.1 3.5-4.7 8-5.8 9.9-1.1 1.9-10.3 17.9-20.5 35.5s-19.4 33.6-20.4 35.5c-1.1 1.9-4.4 7.5-7.3 12.5-2.9 4.9-11.1 19.1-18.2 31.5-19.4 33.6-21 36.1-31.3 49.9-29.8 39.7-70.8 70.6-117.7 88.7-51.3 19.7-108.7 23.2-161.3 9.9-13.4-3.4-26.3-8-76.5-26.9-24.2-9.2-58.8-22.3-77-29.1-18.1-6.8-55.3-20.8-82.5-31-159.4-60.1-145.8-54.7-157.8-62.7-40.5-27.2-57.4-79.7-40.8-126.3 5.8-16.1 12.9-27.1 26.1-40.1 6.7-6.6 23.8-19.4 26-19.4.3 0 2.9-1.5 5.8-3.4 4.3-2.9 88.4-54.4 145.7-89.4 8.5-5.2 17.1-10.4 19-11.7 1.9-1.2 30.7-18.9 64-39.3 33.3-20.3 79-48.3 101.5-62.2 52.4-32.2 71.8-41.8 102-50.4 10.7-3 25.3-6.4 31-7.1 4.2-.5 21.1-2.5 24-2.8 5.9-.7 37.2-.4 45 .3zm-1518 287.5c23.9 2.1 44.5 7.3 75.7 19.1 11.2 4.2 23.7 8.9 27.8 10.4 12 4.5 158.9 59.9 179.4 67.7 14 5.3 20.7 9.4 26.6 16 19.4 22 16.1 56.1-7 73.5-2.5 1.9-20 12.9-39 24.5-19 11.5-67.6 41.3-108 66-40.4 24.7-95.1 58.2-121.5 74.3-26.4 16.1-50.2 30.7-53 32.5-2.7 1.8-21.4 13.2-41.5 25.5s-49.1 30-64.5 39.5c-77.7 47.7-101 61.7-105.6 63.5-18.4 7.3-39 5-55.4-6.2-7.3-4.9-9.2-6.7-14-12.8-6.4-8.4-10.7-18-12.3-27.5-1.1-7-.6-22.3 1.3-36 .2-1.6.6-5 .9-7.5 1.5-13.4 2.8-23.5 4.1-32 2.4-15.9 2.6-17.2 4.1-26 .8-4.7 1.7-10.1 2-12 .3-1.9 1.4-7.8 2.5-13s2.2-10.7 2.4-12.2c3.1-17.3 14.2-62.5 22-89.7 7.8-26.6 21.6-68.2 28.6-86 8.7-22 21.5-44.2 36.7-63.6 4.6-5.8 24.6-26.4 30.7-31.5 38.6-32.4 87.1-52.5 137-56.6 4.4-.4 8.1-.7 8.2-.8.5-.4 25.3.3 31.8.9zm1905.2 215.8c13.5 4.7 24.5 13.5 31.7 25.1 4.9 8 6.1 11.1 10.6 28.2 11.9 45.8 23 105.3 28 149.4.6 5.2 1.4 12 1.8 15 3.2 25.1-3.2 45.4-19.5 61.6-13.5 13.6-29.1 20.3-48.3 21-11.9.5-20.1-1.4-40-9.1-24.5-9.5-38.5-18.1-52.8-32.3-9.7-9.7-11.7-12.1-18.1-21.5-20.6-30.6-28.2-69.4-20.4-104.7 4-18.3 8.6-28.8 25.3-57.5 5.1-8.8 13.5-23.4 18.8-32.5 12.2-21.3 13.9-23.7 21.4-30.5 6.9-6.2 17.1-11.6 26.4-14 9-2.2 25.9-1.4 35.1 1.8zm-1198.2 89.1c13.8.3 26.1.8 27.5 1 1.4.2 7 .7 12.5 1.1 5.5.3 11.4.8 13 1 1.7.2 5.5.6 8.5.9 3 .4 8 .9 11 1.2 12.7 1.3 46.9 6.8 65.1 10.4 48.6 9.8 88.3 21.5 146.4 43.5 12.7 4.8 42.1 15.9 65.5 24.7 23.4 8.8 53.3 20.1 66.5 25 13.2 5 26.7 10.1 30 11.3 16.8 6.3 115.8 43.6 120.5 45.5 43.6 17.2 79.1 53.4 95.5 97.5 7.8 20.9 10.8 37.9 10.7 60-.2 26.1-6.4 52.2-17.7 74.6-1.5 2.8-15.1 26.6-30.2 52.8-15.2 26.2-28.5 49.2-29.6 51.1-1 1.9-7.7 13.4-14.6 25.5-7 12.1-14.3 24.7-16.2 28-1.9 3.3-3.8 6.8-4.4 7.7-.5.9-3.3 5.7-6.1 10.5-2.7 4.8-20.1 34.9-38.6 66.8-18.4 31.9-36.1 62.5-39.3 68-22.2 38.5-48.7 70.1-85.3 101.8-26.1 22.5-65.9 46.2-101.7 60.5-29.3 11.6-63.6 20.6-90.5 23.7-3 .3-6.2.8-7 1-7.2 1.8-51.7 2.6-69.5 1.3-10.9-.8-27.8-2.9-42-5.3-18.2-3-108.1-17.4-131-21-8.2-1.3-16.3-2.6-18-2.9-1.6-.3-6.1-1-10-1.6-8.4-1.3-25.5-4-50-8-9.9-1.6-29.5-4.8-43.5-7-14-2.3-32.2-5.2-40.5-6.5-8.2-1.3-30.7-4.9-50-8-32.1-5.1-56.2-9-62.5-10-1.4-.2-7-1.1-12.5-2-5.5-.9-11.1-1.8-12.5-2-1.4-.2-16.7-2.7-34-5.5-17.3-2.7-36.9-5.9-43.5-7-6.6-1.1-13.8-2.3-16-2.6-2.2-.3-6.5-.9-9.5-1.4-3-.5-7.3-1.2-9.5-1.6-2.2-.3-13.2-2.1-24.5-3.9-11.3-1.8-22.3-3.6-24.5-3.9-2.2-.4-5.1-.8-6.5-1.1-16-2.6-22.9-3.7-25-4-6.1-.9-72.8-11.6-75-12-1.4-.3-7-1.2-12.5-2s-11.1-1.7-12.5-2c-1.3-.3-11-1.8-21.5-3.5-10.4-1.6-37-5.9-59-9.4-22-3.6-41.8-6.7-44-7-2.3-.4-5.2-.8-6.5-1.1-1.3-.3-4.2-.7-6.5-1-2.2-.3-6.5-1-9.5-1.5s-7.1-1.2-9-1.5c-27-4.3-40.7-7.7-56.3-14.1-55.4-22.6-95.8-68.8-111.6-127.4-5.1-19.2-6.6-30.9-6.6-53.5 0-20.2.8-28.2 4.1-43.5 11.8-53.6 43.1-100.2 87.4-129.7 4.1-2.8 32.7-20.4 63.5-39.3 30.8-18.8 63.9-39.1 73.5-45 49.1-30.1 95.6-58.6 140-85.7 16.2-9.9 56.5-34.6 89.5-54.8 84.1-51.6 87-53.3 122.2-70.9 86.3-43.2 178.4-70.3 276.7-81.6 9.8-1.1 22-2.3 27-2.6 5-.3 10.5-.7 12.1-.9 1.7-.2 13.6-.7 26.5-1.1 12.9-.4 23.7-.8 23.8-1 .2-.1.9-.1 1.5.1.7.2 12.5.6 26.2.9zm1043 352.6c35.2 3.9 70.2 16.6 98.5 36.1 39 26.6 67.6 68.4 80 116.5 1.5 6.1 3.1 13.7 3.5 17 .4 3.2 1 6.8 1.2 7.9.2 1.1.6 9.6.8 19 .6 27.5-2.2 44.6-12.6 75.3-26.8 79.2-65.3 159.7-113.1 236.7-10.7 17.2-33 49.7-40.6 59-7.8 9.8-18.7 21.1-29.2 30.5-6.9 6.2-25.7 19.8-35.7 25.8-45.2 27.2-101.1 40.1-154.8 35.8-9.1-.7-23.3-2.8-62-9.1-11.5-1.8-22.8-3.6-25-4-5.5-.8-7.6-1.1-18.8-3-5.4-.9-11-1.8-12.5-2-35.6-4.7-60-15.6-80.8-36.2-33-32.8-44.9-79.8-31.4-124.5 4-13.3 3.6-12.6 107.8-192.8 9.1-15.7 17.6-30.5 19-33 1.3-2.5 4.6-8.1 7.2-12.5 2.6-4.4 12.5-21.5 22-38s21-36.3 25.5-44c4.5-7.7 9.3-16 10.7-18.5 19.6-34.8 28.9-49.1 41.8-64.4 6-7.1 22.7-23 30.5-29.1 19.2-15 42-27.9 63.5-35.8 9.5-3.5 30.4-9.3 37-10.3 1.9-.3 4.6-.7 6-.9 17.5-3.1 41.3-3.7 61.5-1.5zM666 2115c10.7 1.7 22 3.6 25 4 3 .5 7.3 1.1 9.5 1.5 35.5 5.8 47.5 7.7 50 8 1.7.2 12.7 2 24.5 3.9 43 7 59.6 9.7 63 10.2 1.9.3 4.6.7 6 .9 1.4.3 3.9.7 5.5.9 7.3 1.1 54.5 8.7 59.5 9.6 3 .5 10 1.7 15.5 2.5 5.5.9 11.1 1.8 12.5 2 1.4.2 5.7.9 9.5 1.5 8.8 1.4 10 1.6 21.5 3.4 50.1 8.1 87.7 14.1 94 15.1 12 1.8 31.5 5 40.5 6.5 6.1 1 13 2.2 15.5 2.5 2.5.3 9.7 1.5 16 2.5 6.3 1.1 13.3 2.2 15.5 2.5 2.2.3 12.3 2 22.5 3.6 10.2 1.7 19.6 3.2 21 3.4 1.4.2 12.6 2 25 4 12.4 1.9 23.5 3.7 24.7 3.9 1.1.3 4.3.8 7 1.2 2.6.5 5 .9 5.3.9.3.1 3 .5 6 .9s7.8 1.1 10.5 1.6c2.8.6 6.6 1.2 8.5 1.4 1.9.2 7.6 1.1 12.5 2 5 .8 18.9 3.1 31 5 12.1 1.9 23.4 3.7 25 4 1.7.3 6.2 1 10 1.6 9.6 1.5 21.6 4.8 29.9 8.2 43.6 17.9 72.8 60.5 74.1 107.8.6 25.2-4.3 42.7-19.7 69.6-4.9 8.8-10.2 17.9-11.6 20.4-15.6 27.5-26 41.9-41.2 57-37.1 36.9-86.4 57.3-138 57.2-16.8-.1-26.5-1.3-58.5-7.3-170-32.1-330.6-102.9-472.5-208.3-5.2-3.9-10.2-7.6-11-8.2-.8-.7-8.5-6.7-17-13.5-8.5-6.7-15.7-12.5-16-12.8-.3-.3-4.5-4-9.5-8.1-7-5.8-26.6-23-37.1-32.5-.7-.5-9.6-9.1-19.9-19-24-23-29.3-30.4-33.4-46.5-7.4-29.4 10-63.1 38.4-74.1 14.1-5.5 21.6-5.6 50.5-.9zm1180 189.5c3.6.4 14.4 2 24 3.5 9.6 1.6 19.3 3.1 21.5 3.4 15.1 2.3 48.7 7.9 52 8.7 6.8 1.7 16.3 6.9 22 12.1 11.8 10.8 17.8 24.7 17.8 41.3-.1 18.5-7.3 32.7-22 43.2-12 8.6-74.9 39.1-113.8 55.3-31.9 13.2-90 33.8-114.6 40.4-17.8 4.9-34.4 3.7-49.5-3.3-25.7-12.1-42-36.5-43-64.1-.7-20.9 4.4-34.5 21.4-58 27.6-38 68.3-65.5 113.7-77 11.9-3 14-3.4 26-5 13.7-1.7 31.3-1.9 44.5-.5z"/></svg>